<?xml version="1.0" encoding="UTF-8"?>
<svg id="PATTERN" xmlns="http://www.w3.org/2000/svg" xmlns:xlink="http://www.w3.org/1999/xlink" viewBox="0 0 500.72 500">
  <defs>
    <style>
      .cls-1 {
        fill: none;
      }

      .cls-2 {
        fill: #fff;
      }

      .cls-3 {
        fill: #b8c2c5;
      }

      .cls-4 {
        <!-- black -->
        fill: #333;
      }

      .cls-5 {
        fill: #b8c2c5;
      }

      .cls-6 {
        fill: #7938ee;
      }

      .cls-7 {
        fill: #7938ee;
      }

      .cls-8 {
        fill: #7938ee;
      }

      .cls-9 {
        fill: #b8c2c5;
      }

      .cls-10 {
        <!-- purple -->
        fill: #7938ee;
      }

      .cls-11 {
        fill: url(#New_Pattern_Swatch_11);
      }
    </style>
    <pattern id="New_Pattern_Swatch_11" data-name="New Pattern Swatch 11" x="0" y="0" width="300" height="300" patternTransform="translate(175.25 300)" patternUnits="userSpaceOnUse" viewBox="0 0 300 300">
      <g>
        <rect class="cls-1" y="0" width="300" height="300"/>
        <path class="cls-1" d="m281.63,208.5c1.49.64,2.98,1.34,4.45,2.1,5.2-6.97,7.95-15.26,7.95-24,0-9.99-3.69-19.56-10.39-26.96-1.55.72-3.12,1.39-4.71,2.01,6.64,6.67,10.3,15.51,10.3,24.95,0,8.05-2.63,15.61-7.59,21.9Z"/>
        <path class="cls-1" d="m51.22,17.39c8.81,0,17.42,1.55,25.58,4.6V0h-10.94c0,8.04-6.52,14.56-14.56,14.56s-14.56-6.52-14.56-14.56h-10.94v21.94c8.12-3.01,16.67-4.55,25.42-4.55Z"/>
        <path class="cls-1" d="m0,164.96v20.56c0,.36.02.72.02,1.07,0,.41-.01.82-.02,1.24v20.44c3.17-6.73,4.82-14.08,4.82-21.68S3.15,171.69,0,164.96Z"/>
        <path class="cls-1" d="m0,154.23v9.36c3.53,7.1,5.42,14.98,5.42,23.01S3.56,202.55,0,209.66v9.31c6.69-9.5,10.22-20.67,10.22-32.36S6.61,163.67,0,154.23Z"/>
        <path class="cls-1" d="m220.92,209.7c1.48-.71,2.99-1.37,4.5-1.98-4.58-6.14-7-13.43-7-21.12,0-9.08,3.43-17.68,9.65-24.28-1.61-.58-3.2-1.21-4.76-1.89-6.25,7.28-9.69,16.57-9.69,26.17,0,8.33,2.53,16.31,7.3,23.1Z"/>
        <path class="cls-1" d="m9,0h-4.8v93.35C4.2,100.58,2.7,107.46,0,113.72v10.16c5.69-8.81,9-19.29,9-30.53V0Z"/>
        <path class="cls-1" d="m217.78,157.72c-1.43-.77-2.82-1.6-4.19-2.46-6.06,7.77-9.71,17.04-10.56,26.83,1.62,1.7,3.16,3.49,4.61,5.34,0-.28-.01-.55-.01-.83,0-10.49,3.61-20.73,10.15-28.88Z"/>
        <path class="cls-1" d="m283.82,186.6c0,7.33-2.66,14.35-7.5,19.83,1.57.54,3.16,1.15,4.74,1.82,4.94-6.21,7.56-13.69,7.56-21.65,0-9.37-3.66-18.14-10.31-24.72-1.72.65-3.46,1.23-5.23,1.74,6.83,5.72,10.74,14.06,10.74,22.98Z"/>
        <path class="cls-1" d="m76.8,39.65v-5.33c-8.06-3.67-16.66-5.53-25.58-5.53s-17.41,1.84-25.42,5.46v5.32c7.94-3.96,16.49-5.98,25.42-5.98s17.6,2.04,25.58,6.05Z"/>
        <path class="cls-1" d="m233.04,165.81c.49-.49,1.04-.99,1.61-1.49,5.75,1.45,11.76,2.23,17.95,2.23,6.74,0,13.4-.94,19.79-2.73,6.88,5.61,10.83,13.91,10.83,22.78,0,7.26-2.67,14.22-7.51,19.62-7.44-2.47-15.21-3.72-23.11-3.72-7.23,0-14.35,1.05-21.19,3.12-4.5-5.3-6.98-12.05-6.98-19.02,0-7.85,3.06-15.23,8.61-20.79Zm10.07,20.79c0,5.92,4.8,10.71,10.71,10.71s10.71-4.8,10.71-10.71-4.8-10.71-10.71-10.71-10.71,4.8-10.71,10.71Z"/>
        <path class="cls-1" d="m226,207.49c1.56-.61,3.17-1.17,4.79-1.68-4.49-5.38-6.97-12.18-6.97-19.21,0-8.01,3.12-15.54,8.79-21.21.41-.41.87-.83,1.34-1.25-1.78-.47-3.54-1.01-5.26-1.6-6.23,6.51-9.66,15.05-9.66,24.07,0,7.61,2.41,14.83,6.97,20.89Z"/>
        <path class="cls-1" d="m.04,219.96c1.2,1.02,2.4,2.11,3.57,3.25,7.86-10.66,12.02-23.31,12.02-36.61,0-11.61-3.24-22.92-9.36-32.71-2.16-1.47-4.25-3.07-6.26-4.78v4.09c7,9.67,10.82,21.39,10.82,33.4S7.09,210.22.04,219.96Z"/>
        <path class="cls-1" d="m76.8,58.81v-5.97c-7.56-5.14-16.4-7.85-25.58-7.85s-17.9,2.68-25.42,7.75v5.95c7.2-5.74,16.2-8.9,25.42-8.9s18.35,3.2,25.58,9.02Z"/>
        <path class="cls-1" d="m25.11,207.36c-.26-.37-.5-.76-.74-1.15-.11.38-.21.77-.32,1.15h1.06Z"/>
        <path class="cls-1" d="m197.21,141.15c-6.32,7.85-10.84,16.73-13.45,26.41,1.47.77,2.91,1.58,4.32,2.44,2.32-9.24,6.5-17.75,12.43-25.29-1.14-1.15-2.24-2.34-3.3-3.56Z"/>
        <path class="cls-1" d="m18.39,207.36h5.04c.19-.62.36-1.25.53-1.88-1.51-2.81-2.37-6.03-2.37-9.45,0-4.93,1.79-9.44,4.75-12.93-.34-7.21-1.74-14.27-4.17-21.04-2.11-.77-4.17-1.64-6.2-2.61,3.75,8.58,5.66,17.71,5.66,27.15,0,7.16-1.1,14.13-3.23,20.76Z"/>
        <path class="cls-1" d="m76.8,45.78v-5.46c-7.97-4.06-16.58-6.12-25.58-6.12s-17.49,2.04-25.42,6.05v5.45c7.72-4.38,16.49-6.7,25.42-6.7s17.82,2.35,25.58,6.78Z"/>
        <path class="cls-1" d="m76.8,52.13v-5.66c-7.73-4.5-16.58-6.87-25.58-6.87s-17.73,2.35-25.42,6.79v5.65c7.55-4.99,16.32-7.63,25.42-7.63s17.99,2.68,25.58,7.73Z"/>
        <path class="cls-1" d="m3.6,0H0v112.13c2.31-5.82,3.6-12.15,3.6-18.78V0Z"/>
        <path class="cls-1" d="m14.4,0h-4.8v93.35C9.6,105.04,6.06,115.91,0,124.97v7.98c8.98-10.73,14.4-24.55,14.4-39.61V0Z"/>
        <path class="cls-1" d="m51.22,60.59c10.44,0,20.14,5.48,25.58,14.35v-7.95c-6.57-7.12-15.89-11.2-25.58-11.2s-18.03,3.62-24.61,10.19c-.28.28-.55.56-.81.85v7.86c1.2-1.91,2.6-3.7,4.21-5.31,5.67-5.67,13.2-8.79,21.21-8.79Z"/>
        <path class="cls-1" d="m51.22,55.19c9.64,0,18.92,3.98,25.58,10.94v-6.56c-7.18-5.92-16.26-9.18-25.58-9.18s-18.27,3.22-25.42,9.06v6.51c.13-.13.26-.27.39-.41,6.69-6.68,15.58-10.37,25.03-10.37Z"/>
        <path class="cls-1" d="m286.61,210.88c1.4.74,2.81,1.54,4.2,2.39,5.63-7.79,8.61-17.01,8.61-26.67,0-10.82-3.85-21.29-10.85-29.51-1.43.81-2.89,1.57-4.38,2.28,6.72,7.49,10.42,17.14,10.42,27.23,0,8.83-2.77,17.22-8.01,24.28Z"/>
        <path class="cls-1" d="m209.13,152.21c-5.68,7.37-9.47,16.08-10.96,25.23,1.49,1.31,2.93,2.67,4.31,4.09.94-9.7,4.6-18.87,10.6-26.59-1.35-.87-2.66-1.78-3.95-2.73Z"/>
        <path class="cls-1" d="m204.91,148.84c-5.62,7.26-9.6,15.81-11.51,24.75,1.46,1.08,2.88,2.21,4.25,3.38,1.54-9.11,5.34-17.78,11-25.13-1.28-.96-2.53-1.97-3.74-3.01Z"/>
        <path class="cls-1" d="m14.7,207.36h3.06c2.15-6.63,3.26-13.6,3.26-20.76,0-9.59-1.98-18.86-5.89-27.55-2.65-1.3-5.22-2.76-7.7-4.38,5.75,9.63,8.79,20.64,8.79,31.93,0,13.46-4.22,26.26-12.18,37.04,1.15,1.13,2.28,2.32,3.35,3.54,3.24-4.27,5.93-8.84,8.04-13.64-.47-1.98-.72-4.05-.72-6.17Z"/>
        <path class="cls-1" d="m200.93,145.15c-5.89,7.51-10.04,15.98-12.32,25.19,1.45.91,2.87,1.86,4.26,2.87,1.96-8.95,5.95-17.5,11.59-24.76-1.21-1.06-2.39-2.16-3.53-3.29Z"/>
        <path class="cls-1" d="m15.66,214.46c-2.09,4.63-4.72,9.04-7.86,13.17,1.07,1.22,2.11,2.5,3.11,3.82,2.75-3.5,5.15-7.19,7.19-11.04-1.04-1.86-1.86-3.85-2.43-5.95Z"/>
        <path class="cls-1" d="m252.6,235.5c-10.74,0-20.83,4.18-28.43,11.77-.33.33-.66.67-.97,1.02v7.71c1.27-1.89,2.72-3.69,4.37-5.34,6.69-6.69,15.58-10.37,25.03-10.37,19.51,0,35.39,15.87,35.4,35.38h0v24.32h4.8v-24.3c0-22.17-18.03-40.2-40.2-40.2Z"/>
        <path class="cls-1" d="m167.86,173.33c.77,1.73,1.28,3.6,1.52,5.56,21.92,7.95,37.63,28.98,37.63,53.61v67.5h4.8v-67.5c0-27.87-18.55-51.49-43.94-59.17Z"/>
        <path class="cls-1" d="m169.44,179.55c.05.54.07,1.09.07,1.65,0,1.17-.11,2.31-.31,3.42,18.97,7.64,32.39,26.21,32.39,47.88v67.5h4.8v-67.5c0-24.27-15.41-45.01-36.96-52.95Z"/>
        <path class="cls-1" d="m223.2,93.35V0h58.8v93.35c0,16.21-13.19,29.4-29.4,29.4s-29.4-13.19-29.4-29.4Zm9.68-49.28h40c0-11.04-8.95-20-20-20s-20,8.95-20,20Zm0,20h20.46c-1.06.1-2.12.27-3.18.54-10.7,2.74-17.15,13.64-14.41,24.33l38.75-9.92c-2.16-8.43-9.37-14.21-17.57-14.96h15.94c0-11.04-8.95-20-20-20s-20,8.95-20,20Z"/>
        <path class="cls-1" d="m76.8,33.66v-5.23c-8.12-3.35-16.72-5.05-25.58-5.05s-17.35,1.68-25.42,4.98v5.22c8.02-3.58,16.57-5.4,25.42-5.4s17.51,1.84,25.58,5.47Z"/>
        <path class="cls-1" d="m162.87,166.54c1.92,1.69,3.51,3.75,4.65,6.07,25.91,7.59,44.88,31.57,44.88,59.89v67.5h4.8v-67.5c0-32.65-23.41-59.94-54.33-65.96Z"/>
        <path class="cls-1" d="m222.6,232.5c0-40.03-32.57-72.6-72.6-72.6s-72.6,32.57-72.6,72.6v67.5h4.8v-67.5c0-33.32,24.17-61.11,55.89-66.75,3.3-2.54,7.42-4.06,11.91-4.06s8.61,1.52,11.91,4.06c31.73,5.64,55.89,33.43,55.89,66.75v67.5h4.8v-67.5Z"/>
        <path class="cls-1" d="m135.58,194.34c-1.11-1.22-2.06-2.57-2.84-4.04-16.61,6.82-28.34,23.16-28.34,42.2v67.5h4.8v-67.5c0-17.42,10.98-32.32,26.38-38.16Z"/>
        <path class="cls-1" d="m169.1,185.22c-.33,1.59-.86,3.12-1.56,4.54,16.8,6.92,28.67,23.46,28.67,42.73v67.5h4.8v-67.5c0-21.37-13.22-39.7-31.9-47.28Z"/>
        <path class="cls-1" d="m114.6,268.65v-36.15c0-16.3,11.07-30.05,26.09-34.15-1.73-.94-3.3-2.14-4.67-3.54-15.3,5.69-26.22,20.44-26.22,37.69v67.5h2.95c-1.54-4.23-2.38-8.79-2.38-13.54,0-6.41,1.53-12.45,4.23-17.8Z"/>
        <path class="cls-1" d="m167.26,190.3c-.77,1.47-1.73,2.82-2.84,4.04,15.4,5.84,26.38,20.74,26.38,38.16v67.5h4.8v-67.5c0-19.04-11.73-35.38-28.34-42.2Z"/>
        <path class="cls-1" d="m163.98,194.81c-1.36,1.4-2.93,2.6-4.67,3.54,15.02,4.1,26.09,17.85,26.09,34.15v36.15c2.7,5.35,4.23,11.4,4.23,17.8,0,4.76-.84,9.32-2.38,13.54h2.95v-67.5c0-17.25-10.93-32-26.22-37.69Z"/>
        <path class="cls-1" d="m252.6,128.15c19.19,0,34.8-15.61,34.8-34.8V0h-4.8v93.35c0,16.54-13.46,30-30,30s-30-13.46-30-30V0h-4.8v93.35c0,19.19,15.61,34.8,34.8,34.8Z"/>
        <path class="cls-1" d="m252.6,155.15c19.02,0,36.05-8.64,47.4-22.19v-7.98c-10.23,15.29-27.66,25.38-47.4,25.38-31.43,0-57-25.57-57-57V0h-4.8v93.35c0,34.08,27.72,61.8,61.8,61.8Z"/>
        <path class="cls-1" d="m252.6,246.3c-16.21,0-29.4,13.19-29.4,29.4v24.3h58.8v-24.3c0-16.21-13.19-29.4-29.4-29.4Z"/>
        <path class="cls-1" d="m76.8,27.79v-5.16c-8.16-3.08-16.76-4.64-25.58-4.64s-17.31,1.54-25.42,4.59v5.15c8.08-3.27,16.63-4.94,25.42-4.94s17.45,1.68,25.58,5Z"/>
        <path class="cls-1" d="m252.6,149.75c19.86,0,37.35-10.32,47.4-25.87v-10.16c-7.92,18.35-26.18,31.23-47.4,31.23-28.45,0-51.6-23.15-51.6-51.6V0h-4.8v93.35c0,31.1,25.3,56.4,56.4,56.4Z"/>
        <path class="cls-1" d="m252.6,224.7c-10.61,0-20.77,3.23-29.4,9.33v6.05c8.25-6.82,18.66-10.58,29.4-10.58,25.47,0,46.19,20.71,46.2,46.18h0v24.32h1.2v-43.08c-7.5-18.85-25.91-32.22-47.4-32.22Z"/>
        <path class="cls-1" d="m252.6,230.1c-10.76,0-21.2,3.82-29.4,10.75v6.57c.18-.19.36-.39.55-.57,7.71-7.71,17.95-11.95,28.85-11.95,22.49,0,40.79,18.29,40.8,40.78h0v24.32h4.8v-24.3c0-25.14-20.46-45.6-45.6-45.6Z"/>
        <path class="cls-1" d="m132.47,189.77c-.7-1.43-1.23-2.95-1.56-4.54-18.69,7.57-31.91,25.91-31.91,47.28v67.5h4.8v-67.5c0-19.27,11.86-35.81,28.67-42.73Z"/>
        <path class="cls-1" d="m252.6,133.55c22.17,0,40.2-18.03,40.2-40.2V0h-4.8v93.35c0,19.52-15.88,35.4-35.4,35.4s-35.4-15.88-35.4-35.4V0h-4.8v93.35c0,22.17,18.03,40.2,40.2,40.2Z"/>
        <path class="cls-1" d="m252.6,144.35c21.49,0,39.9-13.37,47.4-32.22V0h-1.2v93.35c0,25.47-20.73,46.2-46.2,46.2s-46.2-20.73-46.2-46.2V0h-4.8v93.35c0,28.12,22.88,51,51,51Z"/>
        <path class="cls-1" d="m252.6,240.9c-9.29,0-18.03,3.62-24.61,10.19-1.83,1.84-3.44,3.85-4.79,5.99v12.64c2.78-13.69,14.9-24.02,29.4-24.02,16.53,0,29.99,13.44,30,29.98h0v24.32h4.8v-24.3c0-19.19-15.61-34.8-34.8-34.8Z"/>
        <path class="cls-1" d="m252.6,138.95c25.14,0,45.6-20.46,45.6-45.6V0h-4.8v93.35c0,22.5-18.3,40.8-40.8,40.8s-40.8-18.3-40.8-40.8V0h-4.8v93.35c0,25.14,20.46,45.6,45.6,45.6Z"/>
        <path class="cls-1" d="m130.63,178.89c.23-1.96.75-3.82,1.52-5.56-25.4,7.68-43.94,31.3-43.94,59.17v67.5h4.8v-67.5c0-24.63,15.71-45.66,37.63-53.61Z"/>
        <path class="cls-1" d="m291.81,221.12c-1.44-1.04-2.97-2.05-4.55-3-1.56-.95-3.2-1.85-4.88-2.67-1.75-.87-3.54-1.67-5.32-2.36-1.98-.78-4.02-1.46-6.05-2.04-5.96-1.7-12.15-2.56-18.41-2.56-5.63,0-11.22.7-16.62,2.07-2.11.54-4.16,1.17-6.11,1.88-1.85.66-3.66,1.41-5.39,2.21-1.05.48-2.1,1-3.12,1.54.37,1.63.69,3.28.95,4.94,9.2-5.13,19.66-7.84,30.28-7.84,18.95,0,35.95,8.49,47.4,21.86v-7.09c-1.27-1.26-2.59-2.48-3.95-3.63-1.34-1.15-2.77-2.26-4.24-3.32Z"/>
        <path class="cls-1" d="m0,236.09v7.98c6.06,9.05,9.59,19.92,9.6,31.6h0v24.32h4.8v-24.3C14.4,260.64,8.98,246.83,0,236.09Z"/>
        <path class="cls-1" d="m130.79,184.62c-.2-1.11-.31-2.25-.31-3.42,0-.56.03-1.1.07-1.65-21.55,7.94-36.96,28.68-36.96,52.95v67.5h4.8v-67.5c0-21.67,13.43-40.24,32.39-47.88Z"/>
        <path class="cls-1" d="m299.57,219.57c.15-.2.28-.41.43-.61v-9.31c-1.21,2.41-2.61,4.73-4.2,6.96,1.28.94,2.55,1.93,3.78,2.96Z"/>
        <path class="cls-1" d="m7.05,236.32c-1.07-1.48-2.2-2.92-3.37-4.28-1.2-1.4-2.43-2.73-3.67-3.96,0,0,0,0-.01-.01v7.09c9.34,10.91,14.99,25.06,15,40.51h0v24.32h4.8v-24.3c0-14.26-4.41-27.88-12.75-39.38Z"/>
        <path class="cls-1" d="m252.6,219.3c-10.47,0-20.69,2.89-29.56,8.37.1,1.6.16,3.21.16,4.83v.8c8.65-6.02,18.8-9.2,29.4-9.2,21.22,0,39.48,12.88,47.4,31.23v-10.16c-10.05-15.55-27.54-25.87-47.4-25.87Z"/>
        <path class="cls-1" d="m218.84,207.61c.32.88.62,1.77.91,2.67.21-.11.42-.21.63-.31-.54-.77-1.06-1.56-1.54-2.36Z"/>
        <path class="cls-1" d="m295.31,216.26c1.82-2.54,3.38-5.2,4.69-7.98v-20.44c-.24,9.32-3.23,18.19-8.68,25.75,1.36.85,2.7,1.75,3.99,2.68Z"/>
        <path class="cls-1" d="m252.6,213.9c-10.6,0-21.03,2.72-30.19,7.87.25,1.72.45,3.46.58,5.22,8.91-5.42,19.13-8.29,29.61-8.29,19.74,0,37.17,10.09,47.4,25.38v-7.98c-11.35-13.56-28.38-22.19-47.4-22.19Z"/>
        <path class="cls-1" d="m0,245.17v10.16c2.7,6.25,4.2,13.12,4.2,20.35h0v24.32h4.8v-24.3C9,264.46,5.69,253.97,0,245.17Z"/>
        <path class="cls-1" d="m0,256.92v43.08h3.6v-24.3c0-6.63-1.29-12.97-3.6-18.78Z"/>
        <path class="cls-1" d="m295.21,216.92c-1.44-1.05-2.94-2.06-4.47-3-1.55-.96-3.13-1.86-4.71-2.68-1.64-.86-3.32-1.65-4.99-2.35-1.77-.76-3.56-1.44-5.33-2.04-7.43-2.49-15.21-3.75-23.11-3.75-7.23,0-14.37,1.06-21.21,3.15-1.83.56-3.65,1.19-5.39,1.88-1.7.67-3.39,1.41-5.05,2.22-.34.16-.68.33-1.02.5.48,1.56.91,3.14,1.29,4.74.99-.52,2-1.02,3.01-1.48,1.74-.81,3.57-1.56,5.44-2.23,1.96-.71,4.04-1.35,6.16-1.89,5.44-1.39,11.08-2.09,16.77-2.09,6.31,0,12.56.87,18.57,2.58,2.05.58,4.11,1.27,6.11,2.05,1.8.7,3.61,1.5,5.37,2.38,1.69.83,3.35,1.74,4.92,2.69,1.59.96,3.14,1.98,4.59,3.03,1.49,1.07,2.93,2.19,4.28,3.35,1.22,1.03,2.41,2.13,3.56,3.25v-6.52c-.19-.16-.37-.32-.56-.48-1.37-1.16-2.79-2.27-4.23-3.32Z"/>
        <path class="cls-1" d="m158.52,198.76c-2.57,1.25-5.46,1.95-8.52,1.95s-5.94-.7-8.52-1.95c-15.08,3.81-26.28,17.49-26.28,33.74v34.99c1.35-2.48,2.97-4.79,4.8-6.91v-28.08c0-16.54,13.46-30,30-30s30,13.46,30,30v28.08c1.83,2.12,3.45,4.43,4.8,6.91v-34.99c0-16.25-11.2-29.93-26.28-33.74Z"/>
        <path class="cls-1" d="m300,153.2v-4.08c-.63.54-1.27,1.06-1.92,1.57.67.82,1.3,1.66,1.92,2.51Z"/>
        <path class="cls-1" d="m150,203.1c-16.21,0-29.4,13.19-29.4,29.4v27.39c7.25-8.02,17.74-13.06,29.4-13.06s22.15,5.04,29.4,13.06v-27.39c0-16.21-13.19-29.4-29.4-29.4Z"/>
        <path class="cls-1" d="m222.74,160.18c-1.5-.67-2.98-1.4-4.43-2.17-6.51,8.06-10.09,18.2-10.09,28.59,0,.54.01,1.09.03,1.63,2.44,3.2,4.62,6.61,6.51,10.19-1.15-3.8-1.74-7.77-1.74-11.82,0-9.69,3.45-19.05,9.72-26.42Z"/>
        <path class="cls-1" d="m132.48,172.61c1.14-2.32,2.73-4.38,4.65-6.07-30.92,6.02-54.33,33.31-54.33,65.96v67.5h4.8v-67.5c0-28.33,18.97-52.3,44.88-59.89Z"/>
        <path class="cls-1" d="m10.66,232.12c-1.11-1.48-2.28-2.92-3.48-4.28-1.19-1.37-2.45-2.7-3.75-3.96-1.13-1.11-2.28-2.17-3.44-3.17v6.52c.14.14.29.27.43.42,1.25,1.24,2.5,2.58,3.71,3.99,1.18,1.37,2.32,2.82,3.4,4.32,8.41,11.6,12.86,25.33,12.86,39.71h0v24.32h4.8v-24.3c0-15.87-5.03-30.94-14.54-43.58Z"/>
        <path class="cls-1" d="m76.8,232.5v67.5h-10.94c0-8.04-6.52-14.56-14.56-14.56s-14.56,6.52-14.56,14.56h-10.94v-24.32h0c0-15.91-5.03-31.03-14.52-43.73,2.74-3.46,5.12-7.11,7.16-10.92,4.68,7.89,13.28,13.19,23.12,13.19,14.83,0,26.86-12.03,26.86-26.86h-10.41c2.22-3.22,3.53-7.12,3.53-11.33,0-11.03-8.94-19.98-19.98-19.98-5.79,0-11.01,2.47-14.65,6.41-.38-6.89-1.73-13.64-4.01-20.14,7.81,2.77,16.09,4.23,24.51,4.23,19.55,0,37.93-7.61,51.76-21.44,13.83-13.83,21.44-32.21,21.44-51.76h-.6c0,19.39-7.55,37.62-21.27,51.33-13.71,13.71-31.94,21.27-51.33,21.27-17.2,0-33.86-6.12-46.94-17.23,1.22-1.05,2.42-2.16,3.55-3.28,12.15,10.13,27.54,15.71,43.39,15.71,18.11,0,35.14-7.05,47.94-19.86,12.81-12.81,19.86-29.83,19.86-47.94h-.6c0,17.95-6.99,34.83-19.68,47.52-12.69,12.69-29.57,19.68-47.52,19.68-15.69,0-30.92-5.52-42.95-15.53,1.1-1.1,2.2-2.29,3.28-3.51,11.13,9.19,25.21,14.25,39.67,14.25,16.68,0,32.35-6.49,44.12-18.28,11.79-11.78,18.28-27.44,18.28-44.12h-.6c0,16.52-6.43,32.03-18.1,43.7-11.66,11.67-27.18,18.1-43.7,18.1-14.32,0-28.26-5.01-39.28-14.1,1.07-1.25,2.08-2.51,3.01-3.74,10.17,8.41,23.04,13.04,36.27,13.04,15.22,0,29.54-5.93,40.3-16.7,10.77-10.77,16.7-25.08,16.7-40.3h-.6c0,15.06-5.87,29.23-16.52,39.88-10.65,10.65-24.82,16.52-39.88,16.52-13.11,0-25.85-4.59-35.91-12.93.95-1.29,1.87-2.62,2.74-3.97,9.27,7.8,21.04,12.09,33.18,12.09,13.78,0,26.74-5.37,36.49-15.11,9.74-9.75,15.11-22.71,15.11-36.49h-.6c0,13.62-5.3,26.43-14.94,36.06-9.64,9.63-22.45,14.94-36.06,14.94-12.03,0-23.68-4.26-32.85-12,.89-1.41,1.72-2.83,2.47-4.22,8.41,7.36,19.19,11.42,30.39,11.42,12.34,0,23.95-4.81,32.67-13.53,8.73-8.72,13.53-20.32,13.53-32.67h-.6c0,12.18-4.74,23.63-13.36,32.24-8.61,8.61-20.06,13.36-32.24,13.36-11.1,0-21.78-4.04-30.1-11.36.78-1.47,1.52-2.98,2.19-4.49,7.59,7.13,17.48,11.05,27.91,11.05s21.14-4.24,28.85-11.95c7.71-7.71,11.95-17.95,11.95-28.85h-.6c0,10.74-4.18,20.83-11.77,28.43s-17.69,11.77-28.43,11.77-20.15-3.92-27.65-11.03c.68-1.56,1.32-3.19,1.92-4.87,6.67,7.06,16.01,11.1,25.73,11.1s18.34-3.68,25.03-10.37c6.68-6.69,10.37-15.58,10.37-25.03h-.6c0,9.29-3.62,18.03-10.19,24.61-6.58,6.57-15.32,10.19-24.61,10.19s-18.95-4.06-25.51-11.14c.63-1.84,1.17-3.7,1.63-5.52,5.66,7.43,14.53,11.86,23.88,11.86,8.01,0,15.55-3.12,21.21-8.79s8.79-13.2,8.79-21.21h-.6c0,7.85-3.06,15.23-8.61,20.79-5.55,5.55-12.94,8.61-20.79,8.61-9.32,0-18.16-4.48-23.69-12,1.39-5.66,2.09-11.51,2.09-17.4h-.6c0,5.89-.71,11.75-2.11,17.4v.04c-.51,2.04-1.12,4.13-1.83,6.2-.66,1.9-1.38,3.74-2.15,5.49-.74,1.7-1.57,3.4-2.46,5.04-.82,1.56-1.75,3.15-2.76,4.73-.96,1.51-1.99,3.01-3.07,4.45-1.03,1.38-2.16,2.79-3.37,4.19-1.16,1.33-2.35,2.6-3.54,3.8-.04.04-.08.08-.14.14-1.21,1.21-2.48,2.38-3.78,3.5v-6.51c.07-.07.14-.13.21-.2.12-.11.23-.22.34-.33,1.14-1.14,2.27-2.36,3.38-3.64,1.22-1.41,2.37-2.85,3.4-4.27,1.13-1.54,2.16-3.09,3.09-4.6.98-1.58,1.92-3.26,2.79-5,.91-1.79,1.74-3.65,2.47-5.51.82-2.07,1.55-4.22,2.16-6.38.8-2.83,1.42-5.74,1.84-8.64.48-3.26.72-6.6.72-9.91h-.6c0,3.28-.24,6.59-.72,9.82-.42,2.87-1.03,5.75-1.83,8.56-.61,2.14-1.33,4.27-2.14,6.33-.73,1.84-1.55,3.68-2.45,5.46-.86,1.72-1.79,3.38-2.77,4.95-.91,1.5-1.94,3.04-3.06,4.56-1.02,1.4-2.16,2.83-3.37,4.23-1.1,1.27-2.23,2.48-3.35,3.61-.04.04-.08.08-.12.12v-7.1c9.35-10.91,15-25.08,15-40.54V0h4.8v93.35h.6V0h4.8v75.67s-.03.04-.04.06l.04.02v17.6h.6v-17.51c1.27-2.19,2.83-4.22,4.64-6.03,5.55-5.55,12.94-8.61,20.79-8.61,10.53,0,20.32,5.68,25.54,14.83l.04-.02v17.34h.6V0h4.8v93.35h.6V0h4.8v93.35h.6V0h4.8v93.35h.6V0h4.8v93.35h.6V0h4.8v93.35h.6V0h4.8v93.35h.6V0h2.95c.53,1.46,1.16,2.88,1.85,4.26v89.09h.6V5.42c1.35,2.48,2.97,4.79,4.8,6.91v81.02h.6V13.02c7.25,8.02,17.74,13.06,29.4,13.06s22.15-5.04,29.4-13.06v80.32h.6V12.33c1.83-2.12,3.45-4.43,4.8-6.91v87.92h.6V4.26c.69-1.38,1.32-2.8,1.85-4.26h2.95v93.35c0,34.41,27.99,62.4,62.4,62.4,18.95,0,35.95-8.49,47.4-21.86v7.1c-.07.07-.14.14-.21.21-1.27,1.26-2.61,2.48-3.98,3.62-12.07,10.15-27.41,15.74-43.21,15.74-37.05,0-67.2-30.15-67.2-67.2h-.6c0,37.39,30.41,67.8,67.8,67.8,15.94,0,31.42-5.64,43.6-15.88,1.31-1.09,2.59-2.26,3.8-3.45v6.51c-.07.06-.13.12-.2.17-13.12,11.25-29.89,17.45-47.2,17.45-40.03,0-72.6-32.57-72.6-72.6h-.6c0,18.04,6.56,34.57,17.42,47.34-6.38,7.9-10.95,16.85-13.6,26.59-9.97-5.1-21.26-7.98-33.21-7.98-40.36,0-73.2,32.84-73.2,73.2Zm39.74-88.19c0,5.38,1.27,10.45,3.52,14.95,5.49-10.98,16.83-18.51,29.94-18.51s24.45,7.54,29.94,18.51c2.25-4.5,3.52-9.58,3.52-14.95,0-18.48-14.98-33.46-33.46-33.46,14.83,0,26.86-12.02,26.86-26.86s-12.02-26.86-26.86-26.86-26.86,12.02-26.86,26.86,12.02,26.86,26.86,26.86c-18.48,0-33.46,14.98-33.46,33.46Z"/>
        <path class="cls-1" d="m289.11,156.79c6.81,8.04,10.65,18.19,10.89,28.73v-20.56c-1.79-3.83-4.06-7.44-6.77-10.73-1.35.9-2.73,1.76-4.13,2.56Z"/>
        <path class="cls-1" d="m293.74,153.9c2.46,3,4.55,6.26,6.26,9.7v-9.36c-.76-1.08-1.55-2.14-2.39-3.17-1.26.99-2.56,1.93-3.88,2.83Z"/>
        <path class="cls-3" d="m196.82,140.69c-6.38,7.9-10.95,16.85-13.6,26.59.18.09.36.19.54.28,2.61-9.68,7.14-18.56,13.45-26.41-.13-.15-.26-.31-.39-.47Z"/>
        <path class="cls-3" d="m200.51,144.72c-5.93,7.54-10.11,16.04-12.43,25.29.18.11.36.22.53.33,2.28-9.21,6.43-17.68,12.32-25.19-.14-.14-.28-.29-.42-.43Z"/>
        <path class="cls-3" d="m204.46,148.44c-5.63,7.27-9.63,15.81-11.59,24.76.18.13.35.26.53.39,1.91-8.94,5.89-17.49,11.51-24.75-.15-.13-.3-.26-.45-.39Z"/>
        <path class="cls-3" d="m213.62,186.6c0-9.61,3.44-18.89,9.69-26.17-.19-.08-.38-.17-.57-.25-6.27,7.37-9.72,16.73-9.72,26.42h.6Z"/>
        <path class="cls-3" d="m294.62,186.6c0-10.08-3.7-19.73-10.42-27.23-.19.09-.38.18-.56.27,6.7,7.4,10.39,16.97,10.39,26.96h.6Z"/>
        <path class="cls-3" d="m208.22,186.6c0-10.39,3.58-20.53,10.09-28.59-.18-.1-.36-.19-.54-.28-6.55,8.15-10.15,18.39-10.15,28.88h.6Z"/>
        <path class="cls-3" d="m288.58,157.09c6.99,8.22,10.85,18.68,10.85,29.51h.58v-1.07c-.25-10.54-4.09-20.69-10.89-28.73-.18.1-.35.2-.53.3Z"/>
        <path class="cls-3" d="m213.08,154.94c-6,7.72-9.65,16.89-10.6,26.59.18.19.37.37.54.56.85-9.79,4.51-19.06,10.56-26.83-.17-.11-.34-.21-.51-.32Z"/>
        <path class="cls-3" d="m293.23,154.23c2.71,3.3,4.98,6.91,6.77,10.73v-1.37c-1.71-3.44-3.81-6.7-6.26-9.7-.17.11-.33.22-.5.33Z"/>
        <path class="cls-3" d="m208.65,151.85c-5.67,7.35-9.46,16.02-11,25.13.18.15.35.31.53.46,1.49-9.15,5.27-17.86,10.96-25.23-.16-.12-.32-.24-.48-.36Z"/>
        <path class="cls-3" d="m297.61,151.07c.84,1.03,1.63,2.09,2.39,3.17v-1.03c-.62-.85-1.25-1.69-1.92-2.51-.16.12-.31.25-.47.37Z"/>
        <path class="cls-3" d="m219.02,186.6c0-9.01,3.43-17.55,9.66-24.07-.21-.07-.41-.14-.62-.22-6.22,6.6-9.65,15.2-9.65,24.28h.6Z"/>
        <path class="cls-3" d="m289.22,186.6c0-9.44-3.66-18.28-10.3-24.95-.2.08-.41.16-.61.23,6.65,6.58,10.31,15.35,10.31,24.72h.6Z"/>
        <path class="cls-3" d="m223.82,186.6h.6c0-7.85,3.06-15.23,8.61-20.79.49-.49,1.04-.99,1.61-1.49-.23-.06-.47-.12-.7-.18-.47.42-.93.84-1.34,1.25-5.67,5.67-8.79,13.2-8.79,21.21Z"/>
        <path class="cls-3" d="m283.22,186.6h.6c0-8.92-3.91-17.26-10.74-22.98-.23.07-.46.13-.69.2,6.88,5.61,10.83,13.91,10.83,22.78Z"/>
        <path class="cls-3" d="m294.02,186.6c0,8.73-2.75,17.02-7.95,24,.08.04.16.08.23.12.1.05.2.11.3.17,5.24-7.06,8.01-15.45,8.01-24.28h-.6Z"/>
        <path class="cls-3" d="m220.69,209.81c.08-.04.16-.07.23-.11-4.77-6.79-7.3-14.77-7.3-23.1h-.6c0,4.05.6,8.02,1.74,11.82,1.56,2.95,2.92,6.01,4.07,9.18.48.8,1,1.58,1.54,2.36.1-.05.21-.1.31-.15Z"/>
        <path class="cls-3" d="m290.81,213.27c.08.05.16.09.24.14.09.06.18.12.27.17,5.45-7.55,8.43-16.42,8.68-25.75v-1.24h-.58c0,9.66-2.98,18.87-8.61,26.67Z"/>
        <path class="cls-3" d="m207.62,186.6c0,.28,0,.55.01.83.21.26.41.53.61.8-.02-.54-.03-1.08-.03-1.63h-.6Z"/>
        <path class="cls-3" d="m295.56,216.44c.08.06.16.12.23.18,1.59-2.22,3-4.55,4.2-6.96v-1.38c-1.31,2.78-2.87,5.45-4.69,7.98.08.06.17.12.25.18Z"/>
        <path class="cls-3" d="m299.83,219.78c.06.05.11.1.17.15v-.96c-.14.2-.28.41-.43.61.08.07.17.14.25.21Z"/>
        <path class="cls-3" d="m288.62,186.6c0,7.96-2.62,15.44-7.56,21.65.07.03.14.06.21.09.12.05.23.11.35.16,4.97-6.29,7.59-13.85,7.59-21.9h-.6Z"/>
        <path class="cls-3" d="m218.42,186.6c0,7.69,2.42,14.98,7,21.12.12-.05.24-.1.36-.15.07-.03.15-.05.22-.08-4.56-6.06-6.97-13.28-6.97-20.89h-.6Z"/>
        <path class="cls-3" d="m223.82,186.6c0,7.03,2.47,13.83,6.97,19.21.14-.04.28-.1.42-.14.06-.02.13-.04.19-.06-4.5-5.3-6.98-12.05-6.98-19.02h-.6Z"/>
        <path class="cls-3" d="m283.22,186.6c0,7.26-2.67,14.22-7.51,19.62.06.02.13.04.19.06.14.05.28.1.42.15,4.84-5.48,7.5-12.5,7.5-19.83h-.6Z"/>
        <path class="cls-3" d="m26.33,183.1c.19-.22.38-.43.57-.64-.38-6.89-1.73-13.64-4.01-20.14-.24-.09-.49-.17-.73-.26,2.43,6.77,3.83,13.83,4.17,21.04Z"/>
        <path class="cls-3" d="m21.62,186.6c0-9.44-1.91-18.56-5.66-27.15-.28-.13-.55-.27-.83-.4,3.91,8.69,5.89,17.96,5.89,27.55h.6Z"/>
        <path class="cls-3" d="m7.43,154.67c-.39-.26-.78-.51-1.17-.78,6.12,9.79,9.36,21.1,9.36,32.71h.6c0-11.29-3.04-22.3-8.79-31.93Z"/>
        <path class="cls-3" d="m0,185.53v1.07h.02c0-.36-.02-.72-.02-1.07Z"/>
        <path class="cls-3" d="m5.42,186.6C5.42,178.58,3.53,170.7,0,163.59v1.37c3.15,6.73,4.82,14.12,4.82,21.64h.6Z"/>
        <path class="cls-3" d="m10.82,186.6C10.82,174.6,7,162.87,0,153.2v1.03c6.61,9.43,10.22,20.77,10.22,32.37h.6Z"/>
        <path class="cls-3" d="m10.9,231.45c.08.1.16.21.24.31.05.06.09.12.13.18,2.74-3.46,5.12-7.11,7.16-10.92-.12-.2-.24-.41-.35-.62-2.04,3.85-4.43,7.54-7.19,11.04Z"/>
        <path class="cls-3" d="m24.06,207.36c.11-.38.21-.77.32-1.15-.14-.24-.28-.49-.42-.73-.17.63-.34,1.26-.53,1.88h.62Z"/>
        <path class="cls-3" d="m15.42,213.53c-2.11,4.8-4.79,9.37-8.04,13.64.08.09.17.18.25.28.05.06.1.12.16.18,3.15-4.13,5.77-8.55,7.86-13.17-.08-.31-.16-.62-.23-.93Z"/>
        <path class="cls-3" d="m21.02,186.6c0,7.16-1.11,14.13-3.26,20.76h.63c2.13-6.63,3.23-13.6,3.23-20.76h-.6Z"/>
        <path class="cls-3" d="m15.62,186.6c0,13.3-4.16,25.95-12.02,36.61.08.08.17.16.25.24.06.06.12.12.18.18,7.97-10.78,12.18-23.58,12.18-37.04h-.6Z"/>
        <path class="cls-3" d="m0,186.6v1.24c.01-.41.02-.82.02-1.24H0Z"/>
        <path class="cls-3" d="m4.82,186.6C4.82,194.2,3.17,201.55,0,208.28v1.38c3.56-7.11,5.42-14.95,5.42-23.06h-.6Z"/>
        <path class="cls-3" d="m10.82,186.6h-.6C10.22,198.3,6.69,209.46,0,218.96v.96s.02.02.04.03c7.06-9.74,10.79-21.27,10.79-33.36Z"/>
        <path class="cls-4" d="m21.58,196.03c0,3.42.86,6.64,2.37,9.45.13.25.27.49.42.73.23.39.48.77.74,1.15h32.89c2.22-3.22,3.53-7.12,3.53-11.33,0-11.03-8.94-19.98-19.98-19.98-5.79,0-11.01,2.47-14.65,6.41-.19.21-.38.43-.57.64-2.96,3.48-4.75,7.99-4.75,12.93Z"/>
        <path class="cls-7" d="m24.06,207.36h-9.36c0,2.13.25,4.19.72,6.17.07.31.15.62.23.93.57,2.1,1.39,4.09,2.43,5.95.12.21.23.41.35.62,4.68,7.89,13.28,13.19,23.12,13.19,14.83,0,26.86-12.03,26.86-26.86H25.11s-1.06,0-1.06,0Z"/>
        <path class="cls-7" d="m256.93,64.06h15.94c0-11.04-8.95-20-20-20s-20,8.95-20,20h20.46c1.21-.11,2.41-.11,3.59,0Z"/>
        <path class="cls-7" d="m253.34,64.06c-1.06.1-2.12.27-3.18.54-10.7,2.74-17.15,13.64-14.41,24.33l38.75-9.92c-2.16-8.43-9.37-14.21-17.57-14.96-1.18-.11-2.38-.11-3.59,0Z"/>
        <path class="cls-7" d="m252.88,24.07c-11.04,0-20,8.95-20,20h40c0-11.04-8.95-20-20-20Z"/>
        <path class="cls-2" d="m76.8,22.63v-.64c-8.16-3.05-16.76-4.6-25.58-4.6s-17.31,1.53-25.42,4.55v.64c8.11-3.04,16.66-4.59,25.42-4.59s17.42,1.56,25.58,4.64Z"/>
        <path class="cls-2" d="m76.8,28.44v-.65c-8.12-3.32-16.73-5-25.58-5s-17.34,1.66-25.42,4.94v.65c8.07-3.31,16.63-4.98,25.42-4.98s17.46,1.7,25.58,5.05Z"/>
        <path class="cls-2" d="m76.8,34.32v-.66c-8.06-3.63-16.67-5.47-25.58-5.47s-17.4,1.82-25.42,5.4v.66c8.01-3.62,16.56-5.46,25.42-5.46s17.52,1.86,25.58,5.53Z"/>
        <path class="cls-2" d="m76.8,59.57v-.76c-7.23-5.81-16.29-9.02-25.58-9.02s-18.22,3.16-25.42,8.9v.76c7.16-5.84,16.17-9.06,25.42-9.06s18.4,3.26,25.58,9.18Z"/>
        <path class="cls-2" d="m76.8,52.84v-.72c-7.58-5.06-16.41-7.73-25.58-7.73s-17.88,2.64-25.42,7.63v.72c7.52-5.07,16.31-7.75,25.42-7.75s18.02,2.72,25.58,7.85Z"/>
        <path class="cls-2" d="m76.8,46.47v-.69c-7.75-4.44-16.59-6.78-25.58-6.78s-17.71,2.32-25.42,6.7v.69c7.7-4.44,16.48-6.79,25.42-6.79s17.84,2.38,25.58,6.87Z"/>
        <path class="cls-2" d="m76.8,40.32v-.67c-7.98-4.01-16.58-6.05-25.58-6.05s-17.49,2.01-25.42,5.98v.67c7.93-4.01,16.48-6.05,25.42-6.05s17.61,2.06,25.58,6.12Z"/>
        <path class="cls-2" d="m51.22,55.79c9.68,0,19.01,4.08,25.58,11.2v-.86c-6.66-6.95-15.94-10.94-25.58-10.94s-18.34,3.68-25.03,10.37c-.13.13-.26.27-.39.41v.87c.27-.29.53-.57.81-.85,6.58-6.57,15.32-10.19,24.61-10.19Z"/>
        <path class="cls-2" d="m51.22,60.59c-8.01,0-15.55,3.12-21.21,8.79-1.61,1.61-3.01,3.4-4.21,5.31v1.14c1.27-2.19,2.83-4.22,4.64-6.03,5.55-5.55,12.94-8.61,20.79-8.61,10.53,0,20.32,5.68,25.54,14.83l.04-.02v-1.06c-5.43-8.87-15.14-14.35-25.58-14.35Z"/>
        <path class="cls-2" d="m25.16,75.73l.04.02v-.08s-.03.04-.04.06Z"/>
        <path class="cls-5" d="m150,159.9c40.03,0,72.6,32.57,72.6,72.6v43.2c0-2.05.21-4.05.6-5.98v-12.64s-.03.05-.05.07l-.51-.32c.18-.28.37-.55.55-.83v-7.71s-.05.05-.08.08l-.45-.4c.17-.19.35-.36.52-.55v-6.57s-.07.06-.11.09l-.39-.46c.16-.14.33-.27.49-.4v-6.05s-.08.06-.13.09l-.35-.49c.16-.11.32-.21.47-.32v-.8c0-1.62-.06-3.24-.16-4.83-.05.03-.1.06-.15.09l-.32-.51c.14-.09.28-.17.43-.25-.13-1.76-.33-3.5-.58-5.22-.06.03-.12.06-.17.09l-.3-.52c.12-.07.25-.13.37-.2-.26-1.67-.58-3.31-.95-4.94-.06.03-.13.07-.19.1l-.28-.53c.11-.06.22-.11.33-.17-.38-1.6-.81-3.18-1.29-4.74-.07.04-.14.07-.21.11l-.27-.53c.1-.05.2-.1.3-.15-.29-.9-.59-1.79-.91-2.67-1.15-3.17-2.51-6.23-4.07-9.18-1.89-3.58-4.07-6.99-6.51-10.19-.2-.27-.41-.54-.61-.8-1.45-1.85-2.99-3.64-4.61-5.34-.18-.19-.36-.37-.54-.56-1.38-1.42-2.82-2.79-4.31-4.09-.18-.15-.35-.31-.53-.46-1.37-1.18-2.79-2.31-4.25-3.38-.18-.13-.35-.26-.53-.39-1.38-1-2.8-1.96-4.26-2.87-.18-.11-.35-.22-.53-.33-1.41-.86-2.85-1.68-4.32-2.44-.18-.09-.36-.19-.54-.28-9.97-5.1-21.26-7.98-33.21-7.98-40.36,0-73.2,32.84-73.2,73.2v67.5h.6v-67.5c0-40.03,32.57-72.6,72.6-72.6Z"/>
        <rect class="cls-5" x="222.6" y="275.7" width=".6" height="24.3"/>
        <path class="cls-5" d="m137.13,166.54c.31-.27.63-.54.96-.79-31.73,5.64-55.89,33.43-55.89,66.75v67.5h.6v-67.5c0-32.65,23.41-59.94,54.33-65.96Z"/>
        <path class="cls-5" d="m161.91,165.75c.33.25.65.52.96.79,30.92,6.02,54.33,33.31,54.33,65.96v67.5h.6v-67.5c0-33.32-24.17-61.11-55.89-66.75Z"/>
        <path class="cls-5" d="m167.52,172.61c.12.24.23.48.34.73,25.4,7.68,43.94,31.3,43.94,59.17v67.5h.6v-67.5c0-28.33-18.97-52.3-44.88-59.89Z"/>
        <path class="cls-5" d="m132.14,173.33c.11-.24.22-.49.34-.73-25.91,7.59-44.88,31.57-44.88,59.89v67.5h.6v-67.5c0-27.87,18.55-51.49,43.94-59.17Z"/>
        <path class="cls-5" d="m136.02,194.81c-.15-.15-.3-.31-.45-.47-15.4,5.84-26.38,20.74-26.38,38.16v67.5h.6v-67.5c0-17.25,10.93-32,26.22-37.69Z"/>
        <path class="cls-5" d="m164.42,194.34c-.15.16-.3.31-.45.47,15.3,5.69,26.22,20.44,26.22,37.69v67.5h.6v-67.5c0-17.42-10.98-32.32-26.38-38.16Z"/>
        <path class="cls-5" d="m167.53,189.77c-.09.18-.18.36-.27.54,16.61,6.82,28.34,23.16,28.34,42.2v67.5h.6v-67.5c0-19.27-11.86-35.81-28.67-42.73Z"/>
        <path class="cls-5" d="m132.74,190.3c-.09-.18-.19-.36-.27-.54-16.8,6.92-28.67,23.46-28.67,42.73v67.5h.6v-67.5c0-19.04,11.73-35.38,28.34-42.2Z"/>
        <path class="cls-5" d="m169.21,184.62c-.04.2-.07.4-.11.6,18.69,7.57,31.9,25.91,31.9,47.28v67.5h.6v-67.5c0-21.67-13.43-40.24-32.39-47.88Z"/>
        <path class="cls-5" d="m130.91,185.22c-.04-.2-.08-.4-.11-.6-18.96,7.64-32.39,26.21-32.39,47.88v67.5h.6v-67.5c0-21.37,13.22-39.7,31.91-47.28Z"/>
        <path class="cls-5" d="m130.56,179.55c.02-.22.04-.44.07-.66-21.92,7.95-37.63,28.98-37.63,53.61v67.5h.6v-67.5c0-24.27,15.41-45.01,36.96-52.95Z"/>
        <path class="cls-5" d="m169.37,178.89c.03.22.05.44.07.66,21.55,7.94,36.96,28.68,36.96,52.95v67.5h.6v-67.5c0-24.63-15.71-45.66-37.63-53.61Z"/>
        <path class="cls-5" d="m141.48,198.76c-.27-.13-.53-.27-.79-.41-15.02,4.1-26.09,17.85-26.09,34.15v36.15c.2-.39.39-.78.6-1.16v-34.99c0-16.25,11.2-29.93,26.28-33.74Z"/>
        <path class="cls-5" d="m184.8,232.5v34.99c.21.38.4.77.6,1.16v-36.15c0-16.3-11.07-30.05-26.09-34.15-.26.14-.53.28-.79.41,15.08,3.81,26.28,17.49,26.28,33.74Z"/>
        <path class="cls-5" d="m150,202.5c-16.54,0-30,13.46-30,30v28.08c.2-.23.4-.47.6-.69v-27.39c0-16.21,13.19-29.4,29.4-29.4s29.4,13.19,29.4,29.4v27.39c.2.23.4.46.6.69v-28.08c0-16.54-13.46-30-30-30Z"/>
        <rect class="cls-5" x="222.6" y="0" width=".6" height="93.35"/>
        <rect class="cls-5" x="217.2" y="0" width=".6" height="93.35"/>
        <rect class="cls-5" x="211.8" y="0" width=".6" height="93.35"/>
        <rect class="cls-5" x="190.2" y="0" width=".6" height="93.35"/>
        <rect class="cls-5" x="195.6" y="0" width=".6" height="93.35"/>
        <rect class="cls-5" x="201" y="0" width=".6" height="93.35"/>
        <rect class="cls-5" x="206.4" y="0" width=".6" height="93.35"/>
        <path class="cls-5" d="m184.8,93.35h.6V4.26c-.2.39-.39.78-.6,1.16v87.92Z"/>
        <path class="cls-5" d="m179.4,93.35h.6V12.33c-.2.23-.4.47-.6.69v80.32Z"/>
        <polygon class="cls-5" points="76.8 22.63 76.8 27.79 76.8 28.44 76.8 33.66 76.8 34.32 76.8 39.65 76.8 40.32 76.8 45.78 76.8 46.47 76.8 52.13 76.8 52.84 76.8 58.81 76.8 59.57 76.8 66.13 76.8 66.99 76.8 74.94 76.8 76 76.8 93.35 77.4 93.35 77.4 0 76.8 0 76.8 22 76.8 22.63"/>
        <rect class="cls-5" x="82.2" y="0" width=".6" height="93.35"/>
        <rect class="cls-5" x="87.6" y="0" width=".6" height="93.35"/>
        <rect class="cls-5" x="109.2" y="0" width=".6" height="93.35"/>
        <rect class="cls-5" x="103.8" y="0" width=".6" height="93.35"/>
        <rect class="cls-5" x="98.4" y="0" width=".6" height="93.35"/>
        <rect class="cls-5" x="93" y="0" width=".6" height="93.35"/>
        <path class="cls-5" d="m114.6,93.35h.6V5.42c-.21-.38-.4-.77-.6-1.16v89.09Z"/>
        <path class="cls-5" d="m120,93.35h.6V13.02c-.2-.23-.4-.46-.6-.69v81.02Z"/>
        <path class="cls-3" d="m150,140.75c13.11,0,24.45,7.54,29.94,18.51,2.25-4.5,3.52-9.58,3.52-14.95,0-18.48-14.98-33.46-33.46-33.46s-33.46,14.98-33.46,33.46c0,5.38,1.27,10.45,3.52,14.95,5.49-10.98,16.83-18.51,29.94-18.51Z"/>
        <circle class="cls-6" cx="150" cy="83.99" r="26.86" transform="translate(-15.46 130.67) rotate(-45)"/>
        <path class="cls-5" d="m132.48,172.61c-.12.24-.23.48-.34.73-.77,1.73-1.28,3.6-1.52,5.56-.03.22-.05.44-.07.66-.05.54-.07,1.09-.07,1.65,0,1.17.11,2.31.31,3.42.04.2.07.4.11.6.33,1.59.86,3.12,1.56,4.54.09.18.18.36.27.54.77,1.47,1.73,2.82,2.84,4.04.15.16.3.31.45.47,1.36,1.4,2.93,2.6,4.67,3.54.26.14.53.28.79.41,2.57,1.25,5.46,1.95,8.52,1.95s5.94-.7,8.52-1.95c.27-.13.53-.27.79-.41,1.73-.94,3.3-2.14,4.67-3.54.15-.15.3-.31.45-.47,1.11-1.22,2.06-2.57,2.84-4.04.09-.18.19-.36.27-.54.7-1.43,1.23-2.95,1.56-4.54.04-.2.08-.4.11-.6.2-1.11.31-2.25.31-3.42,0-.56-.03-1.1-.07-1.65-.02-.22-.04-.44-.07-.66-.23-1.96-.75-3.82-1.52-5.56-.11-.24-.22-.49-.34-.73-1.14-2.32-2.73-4.38-4.65-6.07-.31-.27-.63-.54-.96-.79-3.3-2.54-7.42-4.06-11.91-4.06s-8.61,1.52-11.91,4.06c-.33.25-.65.52-.96.79-1.92,1.69-3.51,3.75-4.65,6.07Z"/>
        <path class="cls-5" d="m252.6,165.95c-40.03,0-72.6-32.57-72.6-72.6h-.6c0,18.04,6.56,34.57,17.42,47.34.13.16.26.31.39.47,1.06,1.23,2.16,2.41,3.3,3.56.14.14.28.29.42.43,1.14,1.14,2.32,2.23,3.53,3.29.15.13.3.26.45.39,1.21,1.04,2.46,2.05,3.74,3.01.16.12.32.24.48.36,1.28.95,2.6,1.86,3.95,2.73.17.11.34.21.51.32,1.37.86,2.76,1.69,4.19,2.46.18.1.36.19.54.28,1.45.77,2.92,1.5,4.43,2.17.19.08.38.17.57.25,1.56.68,3.15,1.31,4.76,1.89.2.07.41.15.62.22,1.73.6,3.48,1.13,5.26,1.6.23.06.47.12.7.18,5.75,1.45,11.76,2.23,17.95,2.23,6.74,0,13.4-.94,19.79-2.73.23-.06.46-.13.69-.2,1.76-.51,3.51-1.09,5.23-1.74.2-.08.41-.15.61-.23,1.59-.61,3.17-1.28,4.71-2.01.19-.09.38-.18.56-.27,1.48-.71,2.94-1.47,4.38-2.28.18-.1.35-.2.53-.3,1.4-.81,2.78-1.66,4.13-2.56.17-.11.34-.22.5-.33,1.32-.9,2.61-1.84,3.88-2.83.16-.12.31-.25.47-.37.65-.51,1.29-1.04,1.92-1.57h0c-.06-.06-.13-.11-.2-.16l.2-.23v-.4c-.07.06-.13.12-.2.17-13.12,11.25-29.89,17.45-47.2,17.45Z"/>
        <path class="cls-5" d="m295.81,144.81c-12.07,10.15-27.41,15.74-43.21,15.74-37.05,0-67.2-30.15-67.2-67.2h-.6c0,37.39,30.41,67.8,67.8,67.8,15.94,0,31.42-5.64,43.6-15.88,1.31-1.09,2.59-2.26,3.8-3.45v-.83c-.07.07-.14.14-.21.21-1.27,1.26-2.61,2.48-3.98,3.62Z"/>
        <path class="cls-5" d="m252.6,155.15c-34.08,0-61.8-27.72-61.8-61.8h-.6c0,34.41,27.99,62.4,62.4,62.4,18.95,0,35.95-8.49,47.4-21.86v-.93c-11.35,13.56-28.38,22.19-47.4,22.19Z"/>
        <path class="cls-5" d="m252.6,133.55c-22.17,0-40.2-18.03-40.2-40.2h-.6c0,22.5,18.3,40.8,40.8,40.8s40.8-18.3,40.8-40.8h-.6c0,22.17-18.03,40.2-40.2,40.2Z"/>
        <path class="cls-5" d="m252.6,138.95c-25.14,0-45.6-20.46-45.6-45.6h-.6c0,25.47,20.73,46.2,46.2,46.2s46.2-20.73,46.2-46.2h-.6c0,25.14-20.46,45.6-45.6,45.6Z"/>
        <path class="cls-5" d="m252.6,144.35c-28.12,0-51-22.88-51-51h-.6c0,28.45,23.15,51.6,51.6,51.6,21.22,0,39.48-12.88,47.4-31.23v-1.59c-7.5,18.85-25.91,32.22-47.4,32.22Z"/>
        <path class="cls-5" d="m252.6,149.75c-31.1,0-56.4-25.3-56.4-56.4h-.6c0,31.43,25.57,57,57,57,19.74,0,37.17-10.09,47.4-25.38v-1.09c-10.05,15.55-27.54,25.87-47.4,25.87Z"/>
        <path class="cls-5" d="m252.6,128.15c-19.19,0-34.8-15.61-34.8-34.8h-.6c0,19.52,15.88,35.4,35.4,35.4s35.4-15.88,35.4-35.4h-.6c0,19.19-15.61,34.8-34.8,34.8Z"/>
        <path class="cls-5" d="m252.6,122.75c-16.21,0-29.4-13.19-29.4-29.4h-.6c0,16.54,13.46,30,30,30s30-13.46,30-30h-.6c0,16.21-13.19,29.4-29.4,29.4Z"/>
        <path class="cls-5" d="m.46,148.72c1.22-1.05,2.42-2.16,3.55-3.28-.07-.06-.14-.11-.21-.17l.39-.46c.08.07.17.14.26.21,1.1-1.1,2.2-2.29,3.28-3.51-.07-.06-.15-.12-.23-.18l.38-.46c.08.06.16.12.24.19,1.07-1.25,2.08-2.51,3.01-3.74-.08-.07-.17-.13-.25-.2l.39-.46c.07.06.15.11.22.17.95-1.29,1.87-2.62,2.74-3.97-.09-.07-.18-.14-.26-.21l.39-.46c.07.06.13.11.2.16.89-1.41,1.72-2.83,2.47-4.22-.09-.08-.19-.16-.29-.24l.4-.45c.06.05.12.1.18.15.78-1.47,1.52-2.98,2.19-4.49-.1-.1-.21-.18-.31-.28l.41-.43s.1.09.15.14c.68-1.56,1.32-3.19,1.92-4.87-.11-.12-.23-.23-.34-.35l.44-.41s.08.08.12.12c.63-1.84,1.17-3.7,1.63-5.52-.13-.17-.26-.32-.38-.49l.49-.35s.06.07.08.11c1.39-5.66,2.09-11.51,2.09-17.4h-.6c0,5.89-.71,11.75-2.11,17.4v.04c-.51,2.04-1.12,4.13-1.83,6.2-.66,1.9-1.38,3.74-2.15,5.49-.74,1.7-1.57,3.4-2.46,5.04-.82,1.56-1.75,3.15-2.76,4.73-.96,1.51-1.99,3.01-3.07,4.45-1.03,1.38-2.16,2.79-3.37,4.19-1.16,1.33-2.35,2.6-3.54,3.8-.04.04-.08.08-.14.14-1.21,1.21-2.48,2.38-3.78,3.5v.4l.2-.23c.09.07.18.15.26.22Z"/>
        <path class="cls-5" d="m.54,141.29c1.14-1.14,2.27-2.36,3.38-3.64,1.22-1.41,2.37-2.85,3.4-4.27,1.13-1.54,2.16-3.09,3.09-4.6.98-1.58,1.92-3.26,2.79-5,.91-1.79,1.74-3.65,2.47-5.51.82-2.07,1.55-4.22,2.16-6.38.8-2.83,1.42-5.74,1.84-8.64.48-3.26.72-6.6.72-9.91h-.6c0,3.28-.24,6.59-.72,9.82-.42,2.87-1.03,5.75-1.83,8.56-.61,2.14-1.33,4.27-2.14,6.33-.73,1.84-1.55,3.68-2.45,5.46-.86,1.72-1.79,3.38-2.77,4.95-.91,1.5-1.94,3.04-3.06,4.56-1.02,1.4-2.16,2.83-3.37,4.23-1.1,1.27-2.23,2.48-3.35,3.61-.04.04-.08.08-.12.12v.83c.07-.07.14-.13.21-.2.12-.11.23-.22.34-.33Z"/>
        <path class="cls-5" d="m14.4,93.35C14.4,108.4,8.98,122.22,0,132.95v.93c9.35-10.91,15-25.08,15-40.54h-.6Z"/>
        <path class="cls-5" d="m3.6,93.35C3.6,99.98,2.31,106.31,0,112.13v1.59c2.7-6.25,4.2-13.14,4.2-20.37h-.6Z"/>
        <path class="cls-5" d="m9,93.35C9,104.59,5.69,115.07,0,123.88v1.09c6.06-9.05,9.6-19.93,9.6-31.62h-.6Z"/>
        <path class="cls-5" d="m7.43,154.67c2.48,1.62,5.06,3.08,7.7,4.38.28.14.55.27.83.4,2.03.96,4.1,1.83,6.2,2.61.24.09.48.17.73.26,7.81,2.77,16.09,4.23,24.51,4.23,19.55,0,37.93-7.61,51.76-21.44,13.83-13.83,21.44-32.21,21.44-51.76h-.6c0,19.39-7.55,37.62-21.27,51.33-13.71,13.71-31.94,21.27-51.33,21.27-17.2,0-33.86-6.12-46.94-17.23-.09-.07-.18-.15-.26-.22L0,148.73v.39c2.01,1.71,4.1,3.3,6.26,4.78.39.26.78.52,1.17.78Z"/>
        <path class="cls-5" d="m3.8,145.27c.07.06.14.11.21.17,12.15,10.13,27.54,15.71,43.39,15.71,18.11,0,35.14-7.05,47.94-19.86,12.81-12.81,19.86-29.83,19.86-47.94h-.6c0,17.95-6.99,34.83-19.68,47.52-12.69,12.69-29.57,19.68-47.52,19.68-15.69,0-30.92-5.52-42.95-15.53-.08-.07-.17-.14-.26-.21l-.39.46Z"/>
        <path class="cls-5" d="m7.5,141.32c.07.06.15.12.23.18,11.13,9.19,25.21,14.25,39.67,14.25,16.68,0,32.35-6.49,44.12-18.28,11.79-11.78,18.28-27.44,18.28-44.12h-.6c0,16.52-6.43,32.03-18.1,43.7-11.66,11.67-27.18,18.1-43.7,18.1-14.32,0-28.26-5.01-39.28-14.1-.08-.06-.16-.12-.24-.19l-.38.46Z"/>
        <path class="cls-5" d="m19.18,122.81c.1.1.21.19.31.28,7.59,7.13,17.48,11.05,27.91,11.05s21.14-4.24,28.85-11.95c7.71-7.71,11.95-17.95,11.95-28.85h-.6c0,10.74-4.18,20.83-11.77,28.43s-17.69,11.77-28.43,11.77-20.15-3.92-27.65-11.03c-.05-.05-.1-.09-.15-.14l-.41.43Z"/>
        <path class="cls-5" d="m16.73,127.89c.09.08.19.16.29.24,8.41,7.36,19.19,11.42,30.39,11.42,12.34,0,23.95-4.81,32.67-13.53,8.73-8.72,13.53-20.32,13.53-32.67h-.6c0,12.18-4.74,23.63-13.36,32.24-8.61,8.61-20.06,13.36-32.24,13.36-11.1,0-21.78-4.04-30.1-11.36-.06-.05-.12-.1-.18-.15l-.4.45Z"/>
        <path class="cls-5" d="m13.96,132.64c.09.07.18.14.26.21,9.27,7.8,21.04,12.09,33.18,12.09,13.78,0,26.74-5.37,36.49-15.11,9.74-9.75,15.11-22.71,15.11-36.49h-.6c0,13.62-5.3,26.43-14.94,36.06-9.64,9.63-22.45,14.94-36.06,14.94-12.03,0-23.68-4.26-32.85-12-.07-.06-.13-.11-.2-.16l-.39.46Z"/>
        <path class="cls-5" d="m10.88,137.11c.08.07.16.13.25.2,10.17,8.41,23.04,13.04,36.27,13.04,15.22,0,29.54-5.93,40.3-16.7,10.77-10.77,16.7-25.08,16.7-40.3h-.6c0,15.06-5.87,29.23-16.52,39.88-10.65,10.65-24.82,16.52-39.88,16.52-13.11,0-25.85-4.59-35.91-12.93-.07-.06-.15-.11-.22-.17l-.39.46Z"/>
        <path class="cls-5" d="m21.33,117.29c.11.12.23.23.34.35,6.67,7.06,16.01,11.1,25.73,11.1s18.34-3.68,25.03-10.37c6.68-6.69,10.37-15.58,10.37-25.03h-.6c0,9.29-3.62,18.03-10.19,24.61-6.58,6.57-15.32,10.19-24.61,10.19s-18.95-4.06-25.51-11.14c-.04-.04-.08-.08-.12-.12l-.44.41Z"/>
        <path class="cls-5" d="m23.14,111c.12.17.26.33.38.49,5.66,7.43,14.53,11.86,23.88,11.86,8.01,0,15.55-3.12,21.21-8.79s8.79-13.2,8.79-21.21h-.6c0,7.85-3.06,15.23-8.61,20.79-5.55,5.55-12.94,8.61-20.79,8.61-9.32,0-18.16-4.48-23.69-12-.03-.04-.06-.07-.08-.11l-.49.35Z"/>
        <path class="cls-5" d="m300,149.12v-.39l-.2.23c.06.06.13.11.2.16Z"/>
        <path class="cls-5" d="m7.19,227.84c1.2,1.36,2.37,2.8,3.48,4.28,9.51,12.64,14.54,27.71,14.54,43.58v-.02h.6c0-15.91-5.03-31.03-14.52-43.73-.05-.06-.09-.12-.13-.18-.08-.11-.16-.21-.24-.31-1-1.32-2.04-2.6-3.11-3.82-.05-.06-.1-.12-.16-.18-.08-.09-.17-.18-.25-.28-1.07-1.22-2.19-2.4-3.35-3.54-.06-.06-.12-.12-.18-.18-.08-.08-.17-.16-.25-.24-1.17-1.14-2.37-2.23-3.57-3.25-.01-.01-.02-.02-.04-.03v.79c1.16,1,2.31,2.06,3.44,3.17,1.3,1.26,2.56,2.59,3.75,3.96Z"/>
        <path class="cls-5" d="m3.68,232.04c1.17,1.36,2.3,2.8,3.37,4.28,8.34,11.51,12.75,25.12,12.75,39.38v-.02h.6c0-14.38-4.45-28.11-12.86-39.71-1.08-1.49-2.22-2.94-3.4-4.32-1.21-1.41-2.45-2.76-3.71-3.99-.14-.14-.29-.28-.43-.42v.83s0,0,.01.01c1.24,1.23,2.48,2.56,3.67,3.96Z"/>
        <path class="cls-5" d="m14.4,275.68h.6c0-15.45-5.66-29.6-15-40.51v.93c8.98,10.73,14.4,24.55,14.4,39.61v-.02Z"/>
        <path class="cls-5" d="m3.6,275.68h.6c0-7.22-1.5-14.1-4.2-20.35v1.59c2.31,5.82,3.6,12.15,3.6,18.78v-.02Z"/>
        <path class="cls-5" d="m9,275.68h.6c0-11.68-3.54-22.55-9.6-31.6v1.09c5.69,8.81,9,19.29,9,30.53v-.02Z"/>
        <path class="cls-5" d="m299.57,219.57c-1.23-1.03-2.49-2.02-3.78-2.96-.08-.06-.16-.12-.23-.18-.08-.06-.17-.12-.25-.18-1.29-.93-2.63-1.83-3.99-2.68-.09-.06-.18-.12-.27-.17-.08-.05-.16-.1-.24-.14-1.39-.85-2.79-1.65-4.2-2.39-.1-.05-.2-.11-.3-.17-.08-.04-.16-.08-.23-.12-1.47-.76-2.96-1.46-4.45-2.1-.12-.05-.24-.11-.35-.16-.07-.03-.14-.06-.21-.09-1.57-.67-3.16-1.28-4.74-1.82-.14-.05-.28-.1-.42-.15-.06-.02-.13-.04-.19-.06-7.44-2.47-15.21-3.72-23.11-3.72-7.23,0-14.35,1.05-21.19,3.12-.06.02-.13.04-.19.06-.14.04-.28.09-.42.14-1.63.51-3.24,1.07-4.79,1.68-.07.03-.15.05-.22.08-.12.05-.24.1-.36.15-1.51.6-3.02,1.27-4.5,1.98-.08.04-.16.07-.23.11-.1.05-.21.1-.31.15-.21.1-.42.21-.63.31-.1.05-.2.1-.3.15l.27.53c.07-.04.14-.07.21-.11.34-.17.68-.34,1.02-.5,1.66-.8,3.35-1.55,5.05-2.22,1.74-.69,3.56-1.32,5.39-1.88,6.84-2.09,13.98-3.15,21.21-3.15,7.9,0,15.68,1.26,23.11,3.75,1.77.59,3.56,1.28,5.33,2.04,1.67.7,3.34,1.5,4.99,2.35,1.57.81,3.16,1.71,4.71,2.68,1.53.94,3.03,1.95,4.47,3,1.44,1.04,2.86,2.16,4.23,3.32.19.16.37.32.56.48v-.79c-.06-.05-.11-.1-.17-.15-.08-.07-.17-.14-.25-.21Z"/>
        <path class="cls-5" d="m292.16,220.63c-1.45-1.05-2.99-2.07-4.59-3.03-1.57-.96-3.23-1.86-4.92-2.69-1.76-.88-3.57-1.68-5.37-2.38-2-.78-4.05-1.48-6.11-2.05-6.01-1.71-12.26-2.58-18.57-2.58-5.68,0-11.32.7-16.77,2.09-2.13.54-4.2,1.18-6.16,1.89-1.86.67-3.69,1.42-5.44,2.23-1.01.46-2.02.96-3.01,1.48-.11.06-.22.11-.33.17l.28.53c.06-.03.13-.07.19-.1,1.02-.54,2.07-1.06,3.12-1.54,1.73-.8,3.54-1.55,5.39-2.21,1.95-.7,4-1.34,6.11-1.88,5.39-1.38,10.98-2.07,16.62-2.07,6.26,0,12.45.86,18.41,2.56,2.04.57,4.07,1.26,6.05,2.04,1.78.69,3.57,1.49,5.32,2.36,1.68.82,3.32,1.72,4.88,2.67,1.58.95,3.11,1.96,4.55,3,1.47,1.06,2.9,2.18,4.24,3.32,1.36,1.14,2.68,2.36,3.95,3.63v-.83c-1.15-1.13-2.34-2.23-3.56-3.25-1.35-1.16-2.79-2.28-4.28-3.35Z"/>
        <path class="cls-5" d="m252.6,213.3c-10.62,0-21.08,2.71-30.28,7.84-.12.07-.25.13-.37.2l.3.52c.06-.03.12-.06.17-.09,9.16-5.15,19.59-7.87,30.19-7.87,19.02,0,36.05,8.64,47.4,22.19v-.93c-11.45-13.37-28.45-21.86-47.4-21.86Z"/>
        <path class="cls-5" d="m223.12,248.37s.05-.05.08-.08c.32-.35.64-.69.97-1.02,7.59-7.59,17.69-11.77,28.43-11.77,22.17,0,40.2,18.03,40.2,40.2v-.02h.6c-.01-22.49-18.31-40.78-40.8-40.78-10.9,0-21.14,4.24-28.85,11.95-.19.19-.37.38-.55.57-.17.18-.35.36-.52.55l.45.4Z"/>
        <path class="cls-5" d="m223.09,240.94s.07-.06.11-.09c8.2-6.93,18.64-10.75,29.4-10.75,25.14,0,45.6,20.46,45.6,45.6v-.02h.6c-.01-25.46-20.73-46.18-46.2-46.18-10.74,0-21.15,3.76-29.4,10.58-.16.14-.33.26-.49.4l.39.46Z"/>
        <path class="cls-5" d="m252.6,224.1c-10.6,0-20.75,3.18-29.4,9.2-.16.11-.32.21-.47.32l.35.49s.08-.06.13-.09c8.63-6.1,18.79-9.33,29.4-9.33,21.49,0,39.9,13.37,47.4,32.22v-1.59c-7.92-18.35-26.18-31.23-47.4-31.23Z"/>
        <path class="cls-5" d="m252.6,218.7c-10.48,0-20.7,2.87-29.61,8.29-.14.09-.29.17-.43.25l.32.51c.05-.03.1-.06.15-.09,8.87-5.47,19.09-8.37,29.56-8.37,19.86,0,37.35,10.32,47.4,25.87v-1.09c-10.23-15.29-27.66-25.38-47.4-25.38Z"/>
        <path class="cls-5" d="m223.15,257.15s.03-.05.05-.07c1.35-2.14,2.96-4.16,4.79-5.99,6.58-6.57,15.32-10.19,24.61-10.19,19.19,0,34.8,15.61,34.8,34.8v-.02h.6c-.01-19.51-15.89-35.38-35.4-35.38-9.45,0-18.34,3.68-25.03,10.37-1.64,1.65-3.1,3.44-4.37,5.34-.18.28-.38.55-.55.83l.51.32Z"/>
        <path class="cls-5" d="m223.2,275.7c0-16.21,13.19-29.4,29.4-29.4s29.4,13.19,29.4,29.4v-.02h.6c-.01-16.53-13.47-29.98-30-29.98-14.5,0-26.62,10.33-29.4,24.02-.39,1.93-.6,3.93-.6,5.98h.6Z"/>
        <rect class="cls-5" x="292.8" y="0" width=".6" height="93.35"/>
        <rect class="cls-5" x="298.2" y="0" width=".6" height="93.35"/>
        <rect class="cls-5" x="287.4" y="0" width=".6" height="93.35"/>
        <rect class="cls-5" x="282" y="0" width=".6" height="93.35"/>
        <polygon class="cls-5" points="25.2 75.75 25.2 93.35 25.8 93.35 25.8 75.83 25.8 74.69 25.8 66.83 25.8 65.96 25.8 59.45 25.8 58.69 25.8 52.74 25.8 52.03 25.8 46.38 25.8 45.69 25.8 40.24 25.8 39.57 25.8 34.25 25.8 33.6 25.8 28.38 25.8 27.73 25.8 22.58 25.8 21.94 25.8 0 25.2 0 25.2 75.67 25.2 75.75"/>
        <rect class="cls-5" x="19.8" y="0" width=".6" height="93.35"/>
        <rect class="cls-5" x="14.4" y="0" width=".6" height="93.35"/>
        <rect class="cls-5" x="3.6" y="0" width=".6" height="93.35"/>
        <rect class="cls-5" x="9" y="0" width=".6" height="93.35"/>
        <polygon class="cls-5" points="293.4 275.68 293.4 275.68 292.8 275.68 292.8 275.7 292.8 300 293.4 300 293.4 275.68"/>
        <polygon class="cls-5" points="298.8 275.68 298.8 275.68 298.2 275.68 298.2 275.7 298.2 300 298.8 300 298.8 275.68"/>
        <polygon class="cls-5" points="288 275.68 288 275.68 287.4 275.68 287.4 275.7 287.4 300 288 300 288 275.68"/>
        <polygon class="cls-5" points="282.6 275.68 282.6 275.68 282 275.68 282 275.7 282 300 282.6 300 282.6 275.68"/>
        <polygon class="cls-5" points="25.8 275.68 25.8 275.68 25.2 275.68 25.2 275.7 25.2 300 25.8 300 25.8 275.68"/>
        <polygon class="cls-5" points="20.4 275.68 20.4 275.68 19.8 275.68 19.8 275.7 19.8 300 20.4 300 20.4 275.68"/>
        <polygon class="cls-5" points="15 275.68 15 275.68 14.4 275.68 14.4 275.7 14.4 300 15 300 15 275.68"/>
        <polygon class="cls-5" points="4.2 275.68 4.2 275.68 3.6 275.68 3.6 275.7 3.6 300 4.2 300 4.2 275.68"/>
        <polygon class="cls-5" points="9.6 275.68 9.6 275.68 9 275.68 9 275.7 9 300 9.6 300 9.6 275.68"/>
        <path class="cls-8" d="m115.2,5.42c1.35,2.48,2.97,4.79,4.8,6.91.2.23.4.47.6.69,7.25,8.02,17.74,13.06,29.4,13.06s22.15-5.04,29.4-13.06c.2-.23.4-.46.6-.69,1.83-2.12,3.45-4.43,4.8-6.91.21-.38.4-.77.6-1.16.69-1.38,1.32-2.8,1.85-4.26h-74.5c.53,1.46,1.16,2.88,1.85,4.26.2.39.39.78.6,1.16Z"/>
        <path class="cls-10" d="m51.3,14.56c8.04,0,14.56-6.52,14.56-14.56h-29.11c0,8.04,6.52,14.56,14.56,14.56Z"/>
        <path class="cls-10" d="m51.3,285.44c-8.04,0-14.56,6.52-14.56,14.56h29.11c0-8.04-6.52-14.56-14.56-14.56Z"/>
        <circle class="cls-9" cx="253.82" cy="186.6" r="10.71"/>
        <path class="cls-8" d="m185.4,268.65c-.2-.39-.39-.78-.6-1.16-1.35-2.48-2.97-4.79-4.8-6.91-.2-.23-.4-.47-.6-.69-7.25-8.02-17.74-13.06-29.4-13.06s-22.15,5.04-29.4,13.06c-.2.23-.4.46-.6.69-1.83,2.12-3.45,4.43-4.8,6.91-.21.38-.4.77-.6,1.16-2.7,5.35-4.23,11.4-4.23,17.8,0,4.76.84,9.32,2.38,13.54h74.5c1.54-4.23,2.38-8.79,2.38-13.54,0-6.41-1.53-12.45-4.23-17.8Z"/>
      </g>
    </pattern>
  </defs>
  <rect class="cls-11" width="500.72" height="500"/>
</svg>