<?xml version="1.0" encoding="UTF-8"?>
<svg id="Layer_1" data-name="Layer 1" xmlns="http://www.w3.org/2000/svg" viewBox="0 0 1031.15 1605.95">
  <defs>
    <style>
      .cls-1 {
        fill: #7938ee;
      }

      .cls-2 {
        fill: #b8c2c5;
      }

      .cls-3 {
        fill: #19191e;
      }

      .cls-4 {
        stroke: #af95df;
      }

      .cls-4, .cls-5 {
        fill: none;
        stroke-miterlimit: 10;
      }

      .cls-5 {
        stroke: #af95df;
      }
    </style>
  </defs>
  <g id="stripes2">
    <path class="cls-5" d="m360.02,536.72v405.7c0,179.16,145.24,324.39,324.39,324.39h0c179.16,0,324.39-145.24,324.39-324.39v-405.7"/>
    <path class="cls-5" d="m977.69,536.72v405.7c0,161.71-131.57,293.28-293.28,293.28s-293.28-131.57-293.28-293.28v-405.7"/>
    <path class="cls-5" d="m946.58,536.72v405.7c0,144.56-117.61,262.17-262.17,262.17s-262.17-117.61-262.17-262.17v-405.7"/>
    <path class="cls-5" d="m915.47,536.72v405.7c0,127.41-103.65,231.06-231.06,231.06s-231.05-103.65-231.05-231.06v-405.7"/>
    <path class="cls-5" d="m884.36,536.72v405.7c0,110.25-89.7,199.95-199.95,199.95s-199.94-89.7-199.94-199.95v-405.7"/>
    <path class="cls-5" d="m853.24,536.72v405.7c0,93.1-75.74,168.84-168.84,168.84s-168.83-75.74-168.83-168.84v-405.7"/>
    <path class="cls-5" d="m822.13,536.72v405.7c0,75.94-61.78,137.72-137.72,137.72s-137.72-61.78-137.72-137.72v-405.7"/>
  </g>
  <g id="stripes">
    <path class="cls-4" d="m22.35,384.35v152.38c0,179.16,145.24,324.39,324.39,324.39h0c179.16,0,324.39-145.24,324.39-324.39V131.02"/>
    <path class="cls-4" d="m640.02,131.02v405.7c0,161.72-131.57,293.28-293.28,293.28S53.46,698.44,53.46,536.72v-152.37"/>
    <path class="cls-4" d="m608.91,131.02v405.7c0,144.56-117.61,262.17-262.17,262.17s-262.17-117.61-262.17-262.17v-152.37"/>
    <path class="cls-4" d="m577.8,131.02v405.7c0,127.41-103.65,231.06-231.06,231.06s-231.05-103.65-231.05-231.06v-152.37"/>
    <path class="cls-4" d="m546.69,131.02v405.7c0,110.25-89.7,199.95-199.95,199.95s-199.94-89.7-199.94-199.95v-152.37"/>
    <path class="cls-4" d="m515.58,131.02v405.7c0,93.1-75.74,168.84-168.84,168.84s-168.83-75.74-168.83-168.84v-152.37"/>
    <path class="cls-4" d="m484.46,131.02v405.7c0,75.94-61.78,137.72-137.72,137.72s-137.72-61.78-137.72-137.72v-152.37"/>
  </g>
  <path id="ellipseorange5" class="cls-1" d="m296.03,1155.51c-130.48,0-236.25-105.77-236.25-236.25h236.25v236.25Z"/>
  <path id="ellipseblack3" class="cls-3" d="m364.15,1495.61c-95.86,0-173.57-77.71-173.57-173.57h173.57v173.57Z"/>
  <path id="ellipsegray2" class="cls-2" d="m156.22,1309.08c-81.05,0-146.75-65.7-146.75-146.75h146.75v146.75Z"/>
  <circle id="ellipseblack2" class="cls-3" cx="915.47" cy="365.81" r="115.69" transform="translate(9.47 754.48) rotate(-45)"/>
  <circle id="ellipsegray" class="cls-2" cx="115.69" cy="246.71" r="115.69" transform="translate(-71.11 48.33) rotate(-18.15)"/>
  <circle id="ellipseorange4" class="cls-1" cx="690.09" cy="936.28" r="81.18"/>
  <circle id="ellipseorange3" class="cls-1" cx="69.02" cy="1427.54" r="46.67"/>
  <path id="ellipseorange2" class="cls-1" d="m406.17,1322.04c0,156.8,127.11,283.92,283.92,283.92s283.92-127.11,283.92-283.92H406.17Z"/>
  <path id="ellipseorange" class="cls-1" d="m679.17,101.37c0-55.99-45.38-101.37-101.37-101.37s-101.37,45.38-101.37,101.37h202.74Z"/>
  <circle id="ellipseblack" class="cls-3" cx="693.93" cy="1426.5" r="37.33"/>
</svg>